<svg xmlns="http://www.w3.org/2000/svg" xmlns:xlink="http://www.w3.org/1999/xlink" width="861" height="552" viewBox="0 0 861 552"><defs><clipPath id="b"><rect width="861" height="552"/></clipPath></defs><g id="a" clip-path="url(#b)"><g transform="translate(323.594 117.605)"><path d="M172.173,146.943a40.389,40.389,0,1,1-40.389,40.389,40.391,40.391,0,0,1,40.389-40.389ZM14.743.25H191.109A14.536,14.536,0,0,1,205.6,14.743v129.59a53.3,53.3,0,0,0-15.271-8.293V18.26a2.482,2.482,0,0,0-.851-1.944,2.893,2.893,0,0,0-1.944-.851H18.186a2.482,2.482,0,0,0-1.944.851,2.856,2.856,0,0,0-.851,1.944V147.869h.056l59.177-56.66a5.806,5.806,0,0,1,8.219.426c.056.056.056.13.13.13l49.755,58.862A54.023,54.023,0,0,0,121.492,204.4H14.743A14.536,14.536,0,0,1,.25,189.905V14.743A14.536,14.536,0,0,1,14.743.25ZM136.726,146.666l6.867-42.185a5.844,5.844,0,0,1,6.7-4.813,6.009,6.009,0,0,1,3.165,1.592l31.652,33.263a54.136,54.136,0,0,0-48.386,12.143ZM151.534,33.457A20.982,20.982,0,1,1,136.67,39.6a21.032,21.032,0,0,1,14.864-6.145Zm7.108,129.312,36.946,39.982a28.05,28.05,0,0,0-36.946-39.982ZM185.7,211.877,148.757,171.9A28.05,28.05,0,0,0,185.7,211.877Z" transform="translate(0 5)" fill="#ff6767" fill-rule="evenodd"/></g><text transform="translate(199.5 413.145)" fill="#ff6767" font-size="60" font-family="Roboto-Bold, Roboto" font-weight="700"><tspan x="0" y="0">Image Not Found</tspan></text></g></svg>