<svg xmlns="http://www.w3.org/2000/svg" xmlns:xlink="http://www.w3.org/1999/xlink" width="1920" height="1080" viewBox="0 0 1920 1080">
  <defs>
    <clipPath id="clip-space_mobile">
      <rect width="1920" height="1080"/>
    </clipPath>
  </defs>
  <g id="space_mobile" clip-path="url(#clip-space_mobile)">
    <g id="stars" transform="translate(249.62 72.849)">
      <g id="Group_2" data-name="Group 2" transform="translate(0 0)">
        <g id="Group_1" data-name="Group 1" transform="translate(0 0)">
          <path id="Path_8" data-name="Path 8" d="M157.534,118.439l-24.9-8.24-8.24-24.9a4.221,4.221,0,0,0-8.014,0l-8.24,24.9-24.9,8.24a4.221,4.221,0,0,0,0,8.013l24.9,8.24,8.24,24.9a4.221,4.221,0,0,0,8.013,0l8.24-24.9,24.9-8.24a4.22,4.22,0,0,0,0-8.012Zm-29.565,8.908a4.229,4.229,0,0,0-2.68,2.68l-4.9,14.808-4.9-14.808a4.229,4.229,0,0,0-2.68-2.68L98,122.446l14.808-4.9a4.229,4.229,0,0,0,2.68-2.68l4.9-14.808,4.9,14.808a4.23,4.23,0,0,0,2.68,2.68l14.808,4.9Z" transform="translate(-80.348 -82.406)" fill="#e9e9e9"/>
        </g>
      </g>
    </g>
    <g id="rocket" transform="translate(96.139 49.9) rotate(45)">
      <path id="Path_9" data-name="Path 9" d="M231.473,112a31.473,31.473,0,1,0,31.473,31.473A31.508,31.508,0,0,0,231.473,112Zm0,54.439a22.967,22.967,0,1,1,22.967-22.967A22.992,22.992,0,0,1,231.473,166.439Z" transform="translate(-34.634 -48.488)" fill="#e9e9e9"/>
      <path id="Path_10" data-name="Path 10" d="M252.253,144a4.253,4.253,0,1,0,0,8.506,4.826,4.826,0,0,1,4.82,4.82,4.253,4.253,0,0,0,8.506,0A13.341,13.341,0,0,0,252.253,144Z" transform="translate(-55.414 -62.341)" fill="#e9e9e9"/>
      <path id="Path_11" data-name="Path 11" d="M267.333,215.339l-26.985-42.184c3.742-36.3,6.11-67.411,6.11-82.706a107.466,107.466,0,0,0-23.615-67.871C211.158,7.972,199.517.9,199.027.605a4.254,4.254,0,0,0-4.377,0c-.49.294-12.131,7.366-23.816,21.972A107.472,107.472,0,0,0,147.22,90.448c0,15.3,2.368,46.41,6.11,82.707l-26.99,42.192A40.479,40.479,0,0,0,120,237.116v48.407a4.253,4.253,0,0,0,7.545,2.693l34.664-42.366a17.905,17.905,0,0,0,16.906,12.17h13.471v27.5a4.253,4.253,0,1,0,8.506,0v-27.5h13.471a17.906,17.906,0,0,0,16.906-12.17l34.663,42.366a4.253,4.253,0,0,0,7.545-2.693V237.116A40.488,40.488,0,0,0,267.333,215.339ZM128.506,237.116a31.978,31.978,0,0,1,5-17.193L154.764,186.7c1.69,15.557,3.6,31.782,5.648,47.916l-31.9,38.995V237.116Zm86.058,12.4H201.092V176.644a4.253,4.253,0,1,0-8.506,0v72.869H179.114a9.375,9.375,0,0,1-9.259-8.155c-2.967-22.763-5.666-45.943-7.891-67.359a4.28,4.28,0,0,0-.049-.475c-3.786-36.511-6.189-67.829-6.189-83.076a98.531,98.531,0,0,1,10.76-45.65h34.889a4.253,4.253,0,1,0,0-8.506H171.417q2.7-4.161,5.848-8.135A98.836,98.836,0,0,1,196.838,9.371a100.984,100.984,0,0,1,25.347,26.922h-2.662a4.253,4.253,0,1,0,0,8.506H227.1a98.712,98.712,0,0,1,10.849,45.65c0,15.247-2.4,46.566-6.189,83.078a4.3,4.3,0,0,0-.049.468c-2.225,21.417-4.923,44.6-7.891,67.364a9.374,9.374,0,0,1-9.259,8.155Zm50.608,24.095-31.9-39c2.052-16.133,3.958-32.359,5.648-47.916l21.248,33.217a31.987,31.987,0,0,1,5.009,17.2v36.493Z" transform="translate(0 0)" fill="#e9e9e9"/>
    </g>
    <g id="stars-2" data-name="stars" transform="translate(-58.66 88.228)">
      <g id="Group_2-2" data-name="Group 2" transform="translate(0 0)">
        <g id="Group_1-2" data-name="Group 1" transform="translate(0 0)">
          <path id="Path_8-2" data-name="Path 8" d="M193.43,135.2l-36.479-12.072L144.879,86.646a6.185,6.185,0,0,0-11.742,0l-12.072,36.479L84.587,135.2a6.184,6.184,0,0,0,0,11.74l36.479,12.072,12.072,36.479a6.184,6.184,0,0,0,11.74,0l12.072-36.479,36.479-12.072a6.183,6.183,0,0,0,0-11.739Zm-43.315,13.051a6.2,6.2,0,0,0-3.926,3.926l-7.181,21.694-7.181-21.694a6.2,6.2,0,0,0-3.926-3.926l-21.694-7.181,21.694-7.181a6.2,6.2,0,0,0,3.926-3.926l7.181-21.694,7.181,21.694a6.2,6.2,0,0,0,3.926,3.926l21.694,7.181Z" transform="translate(-80.348 -82.406)" fill="#e9e9e9"/>
        </g>
      </g>
    </g>
    <g id="stars-3" data-name="stars" transform="translate(259.62 311.849)">
      <g id="Group_2-3" data-name="Group 2" transform="translate(0 0)">
        <g id="Group_1-3" data-name="Group 1" transform="translate(0 0)">
          <path id="Path_8-3" data-name="Path 8" d="M157.534,118.439l-24.9-8.24-8.24-24.9a4.221,4.221,0,0,0-8.014,0l-8.24,24.9-24.9,8.24a4.221,4.221,0,0,0,0,8.013l24.9,8.24,8.24,24.9a4.221,4.221,0,0,0,8.013,0l8.24-24.9,24.9-8.24a4.22,4.22,0,0,0,0-8.012Zm-29.565,8.908a4.229,4.229,0,0,0-2.68,2.68l-4.9,14.808-4.9-14.808a4.229,4.229,0,0,0-2.68-2.68L98,122.446l14.808-4.9a4.229,4.229,0,0,0,2.68-2.68l4.9-14.808,4.9,14.808a4.23,4.23,0,0,0,2.68,2.68l14.808,4.9Z" transform="translate(-80.348 -82.406)" fill="#e9e9e9"/>
        </g>
      </g>
    </g>
  </g>
</svg>
