<svg xmlns="http://www.w3.org/2000/svg" xmlns:xlink="http://www.w3.org/1999/xlink" width="1920" height="1080" viewBox="0 0 1920 1080"><defs><clipPath id="b"><rect width="1920" height="1080"/></clipPath></defs><g id="a" clip-path="url(#b)"><g transform="translate(86.938 43.228)"><g transform="translate(0 0)"><g transform="translate(0 0)"><path d="M193.43,135.2l-36.479-12.072L144.879,86.646a6.185,6.185,0,0,0-11.742,0l-12.072,36.479L84.587,135.2a6.184,6.184,0,0,0,0,11.74l36.479,12.072,12.072,36.479a6.184,6.184,0,0,0,11.74,0l12.072-36.479,36.479-12.072a6.183,6.183,0,0,0,0-11.739Zm-43.315,13.051a6.2,6.2,0,0,0-3.926,3.926l-7.181,21.694-7.181-21.694a6.2,6.2,0,0,0-3.926-3.926l-21.694-7.181,21.694-7.181a6.2,6.2,0,0,0,3.926-3.926l7.181-21.694,7.181,21.694a6.2,6.2,0,0,0,3.926,3.926l21.694,7.181Z" transform="translate(-80.348 -82.406)" fill="#e9e9e9"/></g></g></g><g transform="translate(585.494 837.411)"><g transform="translate(0 0)"><g transform="translate(0 0)"><path d="M272.508,172.114,210.52,151.6,190.006,89.612a10.509,10.509,0,0,0-19.952,0L149.54,151.6,87.551,172.112a10.508,10.508,0,0,0,0,19.95l61.989,20.514,20.514,61.989a10.508,10.508,0,0,0,19.95,0l20.514-61.989,61.989-20.514a10.507,10.507,0,0,0,0-19.947Zm-73.6,22.178a10.53,10.53,0,0,0-6.672,6.672l-12.2,36.865-12.2-36.865a10.53,10.53,0,0,0-6.672-6.672l-36.865-12.2,36.865-12.2a10.53,10.53,0,0,0,6.672-6.672l12.2-36.865,12.2,36.865a10.53,10.53,0,0,0,6.672,6.672l36.865,12.2Z" transform="translate(-80.348 -82.406)" fill="#e9e9e9"/></g></g></g><g transform="translate(809.07 274.762)"><g transform="translate(0 0)"><path d="M225.827,150.321l-46.93-15.53-15.531-46.93a7.956,7.956,0,0,0-15.105,0l-15.53,46.93L85.8,150.319a7.956,7.956,0,0,0,0,15.1l46.93,15.531,15.53,46.93a7.956,7.956,0,0,0,15.1,0l15.531-46.93,46.93-15.531a7.955,7.955,0,0,0,0-15.1ZM170.1,167.112a7.972,7.972,0,0,0-5.051,5.051l-9.239,27.909-9.239-27.909a7.972,7.972,0,0,0-5.051-5.051l-27.909-9.239,27.909-9.239a7.972,7.972,0,0,0,5.051-5.051l9.239-27.909,9.239,27.909a7.972,7.972,0,0,0,5.051,5.051l27.909,9.239Z" transform="translate(-80.348 -82.406)" fill="#e9e9e9"/></g></g><g transform="translate(769.031 120.508)"><g transform="translate(0 0)"><g transform="translate(0 0)"><path d="M157.534,118.439l-24.9-8.24-8.24-24.9a4.221,4.221,0,0,0-8.014,0l-8.24,24.9-24.9,8.24a4.221,4.221,0,0,0,0,8.013l24.9,8.24,8.24,24.9a4.221,4.221,0,0,0,8.013,0l8.24-24.9,24.9-8.24a4.22,4.22,0,0,0,0-8.012Zm-29.565,8.908a4.229,4.229,0,0,0-2.68,2.68l-4.9,14.808-4.9-14.808a4.229,4.229,0,0,0-2.68-2.68L98,122.446l14.808-4.9a4.229,4.229,0,0,0,2.68-2.68l4.9-14.808,4.9,14.808a4.23,4.23,0,0,0,2.68,2.68l14.808,4.9Z" transform="translate(-80.348 -82.406)" fill="#e9e9e9"/></g></g></g><g transform="translate(395.367 -112.549) rotate(45)"><path d="M306.84,112A106.84,106.84,0,1,0,413.68,218.84,106.961,106.961,0,0,0,306.84,112Zm0,184.8A77.964,77.964,0,1,1,384.8,218.84,78.052,78.052,0,0,1,306.84,296.8Z" transform="translate(74.004 103.606)" fill="#e9e9e9"/><path d="M262.438,144a14.438,14.438,0,0,0,0,28.876A16.381,16.381,0,0,1,278.8,189.239a14.438,14.438,0,1,0,28.876,0A45.29,45.29,0,0,0,262.438,144Z" transform="translate(118.406 133.207)" fill="#e9e9e9"/><path d="M620.15,731.008l-91.605-143.2c12.7-123.214,20.74-228.84,20.74-280.76,0-107.6-43.595-184.685-80.167-230.4C429.453,27.063,389.934,3.054,388.27,2.057a14.44,14.44,0,0,0-14.858,0c-1.663,1-41.182,25.006-80.848,74.588C256,122.36,212.4,199.441,212.4,307.045c0,51.922,8.039,157.548,20.74,280.762L141.52,731.037a137.412,137.412,0,0,0-21.52,73.9V969.261a14.438,14.438,0,0,0,25.613,9.142l117.672-143.82A60.783,60.783,0,0,0,320.674,875.9h45.731v93.365a14.438,14.438,0,1,0,28.876,0V875.9h45.731A60.786,60.786,0,0,0,498.4,834.583L616.075,978.4a14.439,14.439,0,0,0,25.613-9.142V804.933a137.442,137.442,0,0,0-21.537-73.926ZM148.876,804.933a108.554,108.554,0,0,1,16.987-58.364l72.149-112.788c5.737,52.81,12.209,107.891,19.172,162.659L148.876,928.814V804.933Zm292.139,42.087H395.282V599.652a14.438,14.438,0,1,0-28.876,0V847.021H320.674a31.824,31.824,0,0,1-31.432-27.684c-10.074-77.273-19.233-155.961-26.787-228.661a14.538,14.538,0,0,0-.167-1.613c-12.854-123.944-21.01-230.257-21.01-282.017,0-55.928,12.268-107.81,36.528-154.966H396.244a14.438,14.438,0,0,0,0-28.876h-101.7q9.154-14.126,19.851-27.617C341.115,61.96,368.158,40.8,380.84,31.812,396.591,43,434.531,73.1,466.884,123.2h-9.038a14.438,14.438,0,1,0,0,28.876h25.736c21.131,41.117,36.828,92.627,36.828,154.966,0,51.759-8.156,158.077-21.01,282.023a14.576,14.576,0,0,0-.166,1.59c-7.554,72.7-16.713,151.4-26.789,228.678a31.82,31.82,0,0,1-31.43,27.684Zm171.8,81.793L504.5,796.438c6.965-54.768,13.435-109.849,19.172-162.659l72.13,112.76a108.585,108.585,0,0,1,17,58.392V928.814Z" transform="translate(0 0)" fill="#e9e9e9"/></g></g></svg>