<svg xmlns="http://www.w3.org/2000/svg" xmlns:xlink="http://www.w3.org/1999/xlink" width="1920" height="1080" viewBox="0 0 1920 1080"><defs><clipPath id="b"><rect width="1920" height="1080"/></clipPath></defs><g id="a" clip-path="url(#b)"><g transform="translate(450.387 35.656) rotate(45)"><path d="M268.858,112a68.858,68.858,0,1,0,68.858,68.858A68.936,68.936,0,0,0,268.858,112Zm0,119.106a50.248,50.248,0,1,1,50.248-50.248A50.3,50.3,0,0,1,268.858,231.106Z" transform="translate(19.255 26.958)" fill="#e9e9e9"/><path d="M257.305,144a9.305,9.305,0,0,0,0,18.61,10.558,10.558,0,0,1,10.546,10.546,9.305,9.305,0,0,0,18.61,0A29.189,29.189,0,0,0,257.305,144Z" transform="translate(30.809 34.66)" fill="#e9e9e9"/><path d="M442.347,471.134l-59.04-92.294c8.187-79.412,13.367-147.487,13.367-180.95,0-69.351-28.1-119.03-51.667-148.493C319.443,17.442,293.972,1.968,292.9,1.325a9.307,9.307,0,0,0-9.576,0c-1.072.643-26.542,16.117-52.107,48.072-23.568,29.464-51.665,79.143-51.665,148.493,0,33.464,5.181,101.539,13.367,180.951L133.87,471.153A88.562,88.562,0,0,0,120,518.78V624.689a9.305,9.305,0,0,0,16.507,5.892l75.84-92.692a39.175,39.175,0,0,0,36.988,26.627h29.474v60.174a9.305,9.305,0,1,0,18.61,0V564.515h29.474a39.176,39.176,0,0,0,36.989-26.627l75.839,92.692a9.306,9.306,0,0,0,16.507-5.892V518.78a88.582,88.582,0,0,0-13.881-47.645ZM138.61,518.78a69.963,69.963,0,0,1,10.948-37.615l46.5-72.692c3.7,34.036,7.868,69.536,12.356,104.834l-69.8,85.315V518.78ZM326.894,545.9H297.419V386.476a9.305,9.305,0,1,0-18.61,0V545.9H249.335a20.511,20.511,0,0,1-20.258-17.842c-6.493-49.8-12.4-100.517-17.264-147.372a9.367,9.367,0,0,0-.108-1.04c-8.284-79.882-13.541-148.4-13.541-181.76,0-36.046,7.907-69.484,23.542-99.876h76.334a9.305,9.305,0,0,0,0-18.61H232.494q5.9-9.1,12.794-17.8a216.239,216.239,0,0,1,42.824-41.1c10.151,7.212,34.6,26.609,55.455,58.9h-5.825a9.305,9.305,0,1,0,0,18.61h16.587c13.619,26.5,23.736,59.7,23.736,99.876,0,33.359-5.257,101.881-13.541,181.764a9.391,9.391,0,0,0-.107,1.025c-4.868,46.857-10.772,97.575-17.266,147.383A20.508,20.508,0,0,1,326.894,545.9Zm110.723,52.716-69.8-85.316c4.489-35.3,8.659-70.8,12.356-104.834l46.488,72.674a69.983,69.983,0,0,1,10.959,37.634v79.842Z" transform="translate(0 0)" fill="#e9e9e9"/></g><g transform="translate(508.157 847.697)"><g transform="translate(0 3.459)"><path d="M79.916,163.291a4.617,4.617,0,0,1-4.541-3.781c-4.889-26.554-9.379-42.784-19.094-52.5S30.335,92.805,3.781,87.917a4.618,4.618,0,0,1,0-9.083c26.553-4.888,42.784-9.379,52.5-19.094S70.486,33.794,75.375,7.24a4.618,4.618,0,0,1,9.083,0c4.888,26.553,9.379,42.784,19.094,52.5s25.946,14.206,52.5,19.094a4.618,4.618,0,0,1,0,9.083c-26.553,4.888-42.784,9.379-52.5,19.094s-14.206,25.946-19.094,52.5A4.618,4.618,0,0,1,79.916,163.291ZM27.09,83.375C43.3,87.41,54.626,92.3,62.811,100.48s13.071,19.514,17.105,35.72c4.035-16.207,8.921-27.535,17.105-35.72s19.514-13.071,35.72-17.105c-16.206-4.035-27.535-8.921-35.72-17.105S83.95,46.757,79.916,30.55C75.881,46.757,71,58.085,62.811,66.27S43.3,79.341,27.09,83.375Z" transform="translate(0 -3.459)" fill="#e9e9e9"/></g></g><g transform="translate(734.109 421.195)"><g transform="translate(0 3.459)"><path d="M38.88,81.219a2.246,2.246,0,0,1-2.209-1.839c-2.378-12.919-4.563-20.815-9.29-25.542S14.758,46.927,1.84,44.549a2.247,2.247,0,0,1,0-4.419c12.919-2.378,20.815-4.563,25.542-9.29S34.293,18.217,36.671,5.3a2.247,2.247,0,0,1,4.419,0c2.378,12.919,4.563,20.815,9.29,25.542S63,37.752,75.921,40.13a2.247,2.247,0,0,1,0,4.419C63,46.927,55.106,49.112,50.379,53.838S43.468,66.461,41.09,79.38A2.247,2.247,0,0,1,38.88,81.219Zm-25.7-38.88c7.885,1.963,13.4,4.34,17.378,8.322s6.359,9.494,8.322,17.378c1.963-7.885,4.34-13.4,8.322-17.378S56.7,44.3,64.58,42.339C56.7,40.376,51.184,38,47.2,34.017s-6.359-9.494-8.322-17.378c-1.963,7.885-4.34,13.4-8.322,17.378S21.065,40.376,13.18,42.339Z" transform="translate(0 -3.459)" fill="#e9e9e9"/></g></g><g transform="translate(155.109 198.195)"><g transform="translate(0 3.459)"><path d="M38.88,81.219a2.246,2.246,0,0,1-2.209-1.839c-2.378-12.919-4.563-20.815-9.29-25.542S14.758,46.927,1.84,44.549a2.247,2.247,0,0,1,0-4.419c12.919-2.378,20.815-4.563,25.542-9.29S34.293,18.217,36.671,5.3a2.247,2.247,0,0,1,4.419,0c2.378,12.919,4.563,20.815,9.29,25.542S63,37.752,75.921,40.13a2.247,2.247,0,0,1,0,4.419C63,46.927,55.106,49.112,50.379,53.838S43.468,66.461,41.09,79.38A2.247,2.247,0,0,1,38.88,81.219Zm-25.7-38.88c7.885,1.963,13.4,4.34,17.378,8.322s6.359,9.494,8.322,17.378c1.963-7.885,4.34-13.4,8.322-17.378S56.7,44.3,64.58,42.339C56.7,40.376,51.184,38,47.2,34.017s-6.359-9.494-8.322-17.378c-1.963,7.885-4.34,13.4-8.322,17.378S21.065,40.376,13.18,42.339Z" transform="translate(0 -3.459)" fill="#e9e9e9"/></g></g><g transform="translate(280.857 47.942)"><g transform="translate(0 3.459)"><path d="M51.133,105.724a2.954,2.954,0,0,1-2.906-2.419c-3.128-16.99-6-27.375-12.217-33.591S19.409,60.625,2.419,57.5a2.955,2.955,0,0,1,0-5.811c16.99-3.128,27.375-6,33.591-12.217S45.1,22.868,48.227,5.878a2.955,2.955,0,0,1,5.811,0c3.128,16.99,6,27.375,12.217,33.591s16.6,9.089,33.591,12.217a2.955,2.955,0,0,1,0,5.811c-16.99,3.128-27.374,6-33.591,12.217s-9.089,16.6-12.217,33.591A2.955,2.955,0,0,1,51.133,105.724Zm-33.8-51.133C27.7,57.173,34.951,60.3,40.188,65.536s8.363,12.485,10.944,22.855c2.582-10.37,5.708-17.618,10.944-22.855s12.486-8.363,22.855-10.944C74.562,52.01,67.314,48.884,62.077,43.647S53.714,31.162,51.133,20.792c-2.582,10.37-5.708,17.618-10.944,22.855S27.7,52.01,17.333,54.592Z" transform="translate(0 -3.459)" fill="#e9e9e9"/></g></g><g transform="translate(86.938 805.563)"><g transform="translate(0 3.459)"><path d="M42.135,87.728a2.434,2.434,0,0,1-2.394-1.993c-2.577-14-4.945-22.557-10.067-27.68s-13.68-7.49-27.68-10.067a2.435,2.435,0,0,1,0-4.789c14-2.577,22.557-4.945,27.68-10.067s7.49-13.68,10.067-27.68a2.435,2.435,0,0,1,4.789,0c2.577,14,4.945,22.557,10.067,27.68s13.68,7.49,27.68,10.067a2.435,2.435,0,0,1,0,4.789c-14,2.577-22.557,4.945-27.68,10.067s-7.49,13.68-10.067,27.68A2.435,2.435,0,0,1,42.135,87.728ZM14.283,45.594c8.545,2.127,14.518,4.7,18.833,9.018S40.007,64.9,42.134,73.445c2.127-8.545,4.7-14.518,9.018-18.833s10.288-6.891,18.833-9.018c-8.545-2.127-14.517-4.7-18.833-9.018s-6.891-10.288-9.018-18.833c-2.127,8.545-4.7,14.518-9.018,18.833S22.828,43.466,14.283,45.594Z" transform="translate(0 -3.459)" fill="#e9e9e9"/></g></g></g></svg>