<svg xmlns="http://www.w3.org/2000/svg" xmlns:xlink="http://www.w3.org/1999/xlink" width="1500" height="780" viewBox="0 0 1500 780"><defs><clipPath id="b"><rect width="1500" height="780"/></clipPath></defs><g id="a" clip-path="url(#b)"><rect width="1500" height="780" fill="#fff"/><g transform="translate(460.163 99.683)" opacity="0.8"><g transform="translate(63.895 413.003)"><path d="M31.948,81.9c38.378-38.378,42.216-47.973,66.2-23.986s14.392,26.865-23.986,66.2C45.38,152.9,8.921,147.144,8.921,147.144S3.164,110.684,31.948,81.9" transform="translate(-8.451 -44.837)" fill="#ff9d27"/><path d="M57.055,109.1C72.407,68.8,77.2,64,55.136,51.531S33.069,47.694,18.677,87.991C7.163,117.734,20.6,144.6,20.6,144.6s25.905-4.8,36.459-35.5" transform="translate(39.36 -32.697)" fill="#ff9d27"/></g><path d="M18.288,69.465C26.924,47.4,26.924,42.6,38.437,49.316c12.473,6.716,9.595,9.595.959,31.662a32.085,32.085,0,0,1-20.149,20.149,46.185,46.185,0,0,1-.959-31.662" transform="translate(119.954 382.52)" fill="#fdf516"/><path d="M100.467,59.147C87.994,37.08,83.2,41.877,42.9,57.229,13.157,68.742,7.4,93.688,7.4,93.688s26.865,13.432,56.608,1.919c40.3-15.351,48.932-15.351,36.459-36.459" transform="translate(46.411 362.135)" fill="#ff9d27"/><g transform="translate(95.067 412.871)"><path d="M43.362,73.383c22.067-8.635,26.865-8.635,20.149-20.149-6.716-12.473-9.595-9.595-31.662-.959A32.085,32.085,0,0,0,11.7,72.424s15.351,6.716,31.662.959" transform="translate(-11.7 -44.823)" fill="#fdf516"/><path d="M26,66.105C47.109,45,49.028,39.24,62.46,52.673s7.676,15.351-13.432,36.459A43.43,43.43,0,0,1,12.569,101.6,48.817,48.817,0,0,1,26,66.105" transform="translate(-4.893 -39.464)" fill="#fdf516"/></g><path d="M160.31,161.132C100.824,61.348,2,102.605,2,102.605S143.04-38.435,238.026,56.551Z" transform="translate(0 186.272)" fill="#3baacf"/><path d="M206.364,87.254l30.7-30.7C143.04-38.435,2,102.605,2,102.605s123.77-88.27,204.364-15.351" transform="translate(0 186.272)" fill="#428bc1"/><path d="M26,115.116c99.783,59.486,58.527,158.31,58.527,158.31S225.567,132.386,130.581,37.4Z" transform="translate(206.27 304.248)" fill="#3baacf"/><path d="M47.451,68.2l30.7-30.7C173.14,132.486,32.1,273.526,32.1,273.526S120.37,148.8,47.451,68.2" transform="translate(258.696 305.107)" fill="#428bc1"/><path d="M311.453,277.6C199.2,388.895,75.427,449.341,32.252,406.165s17.27-166.945,128.567-279.2C291.3-3.523,436.183,2.234,436.183,2.234s4.8,144.878-124.729,275.364" transform="translate(139.572 1.685)" fill="#c5d0d8"/><path d="M273.091,247.621c-111.3,111.3-222.594,184.216-248.5,158.31s47.013-137.2,158.31-248.5C313.388,26.946,428.523,2,428.523,2S403.577,117.135,273.091,247.621Z" transform="translate(149.151)" fill="#dae3ea"/><path d="M94.561,130.867a12.161,12.161,0,0,1-17.27,0L19.723,73.3a13.344,13.344,0,0,1,0-18.23L36.993,37.8l74.838,74.838-17.27,18.23" transform="translate(121.398 307.685)" fill="#c94747"/><path d="M65.065,98.986c-4.8,4.8-10.554,6.716-13.432,3.838L19.011,70.2c-2.878-2.878-.959-8.635,3.838-13.432L40.119,39.5,82.336,81.716l-17.27,17.27" transform="translate(134.583 322.296)" fill="#f15744"/><path d="M67.149,102.346c-2.878,2.878-9.595,2.878-12.473,0L17.257,64.927c-2.878-2.878-1.919-8.635.959-11.513L29.73,41.9,78.662,90.832,67.149,102.346" transform="translate(116.189 342.923)" fill="#3e4347"/><path d="M53.619,87.794c-2.878,2.878-8.635,3.838-10.554,1.919L17.159,63.808c-1.919-1.919-.959-6.716,2.878-9.595L31.551,42.7,65.132,76.281,53.619,87.794" transform="translate(122.043 349.799)" fill="#62727a"/><path d="M170.951,2.227S119.14.308,49.1,27.173l96.905,96.905C172.87,54.038,170.951,2.227,170.951,2.227" transform="translate(404.804 1.692)" fill="#c94747"/><path d="M154.621,2.2S113.365,10.835,51,46.335l59.486,59.486C145.986,43.457,154.621,2.2,154.621,2.2" transform="translate(421.134 1.719)" fill="#f15744"/><circle cx="47.973" cy="47.973" r="47.973" transform="translate(352.202 131.527)" fill="#edf4f9"/><circle cx="31.662" cy="31.662" r="31.662" transform="translate(368.512 147.837)" fill="#3baacf"/><circle cx="47.973" cy="47.973" r="47.973" transform="translate(256.256 227.472)" fill="#edf4f9"/><circle cx="31.662" cy="31.662" r="31.662" transform="translate(272.567 243.783)" fill="#3baacf"/><g transform="translate(438.313 35.341)"><path d="M61.147,19.147c-2.878,2.878-8.635,2.878-11.513,0s-2.878-8.635,0-11.513,8.635-2.878,11.513,0,2.878,8.635,0,11.513" transform="translate(-47.475 -5.475)" fill="#fff"/><circle cx="7.676" cy="7.676" r="7.676" transform="translate(22.307 22.307)" fill="#fff"/><circle cx="7.676" cy="7.676" r="7.676" transform="translate(45.334 45.334)" fill="#fff"/><circle cx="7.676" cy="7.676" r="7.676" transform="translate(67.402 68.361)" fill="#fff"/><circle cx="7.676" cy="7.676" r="7.676" transform="translate(90.429 90.429)" fill="#fff"/></g></g></g></svg>