<svg xmlns="http://www.w3.org/2000/svg" xmlns:xlink="http://www.w3.org/1999/xlink" width="515" height="515" viewBox="0 0 515 515"><defs><clipPath id="b"><rect width="515" height="515"/></clipPath></defs><g id="a" clip-path="url(#b)"><g transform="translate(28 28)"><path d="M230,0C102.974,0,0,102.975,0,230,0,333.712,68.651,421.38,162.985,450.07L444.9,147.918C411.849,61.431,328.105,0,230,0Z" fill="#630808"/><path d="M460,230a229.435,229.435,0,0,0-15.1-82.082L378.492,81.507,121.812,408.9l41.172,41.172A229.934,229.934,0,0,0,230,460C357.026,460,460,357.025,460,230Z" fill="#4a0606"/><path d="M84.336,290.811,51.1,338.187l35.355,35.356,54.448-40.3Z" fill="#b02020"/><path d="M169.189,375.664l-35.356-49.5L86.457,373.543,121.813,408.9Z" fill="#8a1414"/><path d="M70.194,177.674l-49.5,49.5,63.64,21.213,14.142,14.142L190.4,170.6,176.26,156.461Z" fill="#e9a3a3"/><path d="M303.539,283.74,289.4,269.6l-91.924,91.924,14.142,14.142,21.213,63.64,49.5-49.5Z" fill="#cd6262"/><path d="M215.858,116.863,63.123,269.6l63.64,63.64L259.7,214.444,378.492,81.508A153.6,153.6,0,0,0,215.858,116.863Z" fill="#f9e3e3"/><path d="M343.137,244.142A153.6,153.6,0,0,0,378.492,81.508l-251.73,251.73,63.64,63.64Z" fill="#e9a3a3"/><path d="M265.355,123.934a50,50,0,0,0,0,70.711l47.14-23.57,23.57-47.14A50,50,0,0,0,265.355,123.934Z" fill="#db8282"/><path d="M336.066,123.934l-70.711,70.711a50,50,0,0,0,70.711-70.711Z" fill="#be4141"/><path d="M279.5,138.076a30,30,0,0,0,0,42.426l28.284-14.142,14.142-28.284A30,30,0,0,0,279.5,138.076Z" fill="#fff"/><path d="M0,0H30V140H0Z" transform="translate(137.37 343.843) rotate(-135)" fill="#cd6262"/><path d="M321.924,138.076,279.5,180.5a30,30,0,0,0,42.426-42.426Z" fill="#ff5757"/></g></g></svg>